<svg width="17" height="13" viewBox="0 0 17 13" fill="none" xmlns="http://www.w3.org/2000/svg">
<path d="M2.91975 7.41693H16.1281C16.3755 7.41693 16.5826 7.3294 16.7495 7.15434C16.9165 6.97947 17 6.76237 17 6.50303C17 6.24368 16.9165 6.02658 16.7495 5.85172C16.5826 5.67666 16.3755 5.58912 16.1281 5.58912H2.91975L6.74716 1.5774C6.91999 1.39604 7.00534 1.18391 7.00321 0.941015C7.00089 0.69812 6.91554 0.482135 6.74716 0.293059C6.56677 0.104186 6.35964 0.00660009 6.12578 0.000304318C5.89172 -0.00599146 5.68449 0.0853988 5.5041 0.274475L0.297323 5.732C0.188431 5.84613 0.111702 5.96646 0.0671368 6.09299C0.0223789 6.21951 0 6.35619 0 6.50303C0 6.64986 0.0223789 6.78654 0.0671368 6.91306C0.111702 7.03959 0.188431 7.15992 0.297323 7.27406L5.5041 12.7316C5.67713 12.9127 5.88242 13.0022 6.11997 13C6.35771 12.9975 6.56677 12.9019 6.74716 12.713C6.91554 12.5239 7.00273 12.3099 7.00874 12.0708C7.01474 11.8318 6.92755 11.6177 6.74716 11.4287L2.91975 7.41693Z" fill="black"/>
</svg>
