<svg width="160" height="143" viewBox="0 0 160 143" fill="none" xmlns="http://www.w3.org/2000/svg">
<path d="M82.1679 0.307724L76.9471 1.64243L12.6264 18.0863L7.4057 19.4211C4.87161 20.0719 2.70142 21.6927 1.37125 23.9279C0.0410883 26.1631 -0.340427 28.8301 0.310407 31.3437L22.9487 118.373C23.6053 120.885 25.2402 123.036 27.4948 124.355C29.7494 125.674 32.4396 126.052 34.9752 125.407L34.9886 125.403L109.724 106.297L109.737 106.293C112.271 105.643 114.442 104.022 115.772 101.787C117.102 99.5514 117.483 96.8844 116.833 94.3707L94.1943 7.34184C93.5378 4.82961 91.9028 2.67814 89.6482 1.35944C87.3936 0.0407413 84.7034 -0.337491 82.1679 0.307724Z" fill="#F2F2F2"/>
<path d="M82.8713 3.07542L76.6894 4.65524L14.3116 20.5963L8.12976 22.1761C6.32567 22.6392 4.78065 23.7927 3.83366 25.3833C2.88668 26.974 2.61506 28.872 3.07841 30.6608L25.7105 117.632C26.1779 119.42 27.3418 120.951 28.9469 121.889C30.552 122.828 32.4673 123.097 34.2724 122.638L34.2859 122.634L109 103.54L109.014 103.537C110.818 103.074 112.363 101.92 113.31 100.33C114.257 98.739 114.529 96.8411 114.065 95.0523L91.4331 8.08125C90.9657 6.29344 89.8018 4.76236 88.1967 3.82391C86.5916 2.88545 84.6764 2.61627 82.8713 3.07542Z" fill="white"/>
<path d="M77.8192 30.9285L40.1425 40.8992C39.7217 41.0106 39.275 40.9458 38.9007 40.7192C38.5264 40.4926 38.2552 40.1227 38.1466 39.6909C38.0381 39.259 38.1012 38.8006 38.322 38.4165C38.5429 38.0324 38.9033 37.7541 39.3241 37.6427L77.0008 27.672C77.4215 27.5611 77.8679 27.6261 78.2418 27.8528C78.6158 28.0794 78.8868 28.4492 78.9953 28.8808C79.1037 29.3124 79.0408 29.7705 78.8202 30.1545C78.5997 30.5384 78.2396 30.8169 77.8192 30.9285Z" fill="#F2F2F2"/>
<path d="M86.3866 34.5681L42.0529 45.6649C41.6311 45.7705 41.1832 45.7091 40.808 45.4942C40.4328 45.2794 40.1608 44.9286 40.052 44.5191C39.9433 44.1096 40.0065 43.675 40.2279 43.3108C40.4493 42.9466 40.8106 42.6826 41.2325 42.577L85.5662 31.4802C85.988 31.3746 86.4359 31.436 86.8111 31.6509C87.1863 31.8658 87.4583 32.2165 87.5671 32.626C87.6759 33.0355 87.6126 33.4701 87.3912 33.8343C87.1698 34.1986 86.8085 34.4625 86.3866 34.5681Z" fill="#F2F2F2"/>
<path d="M84.4858 54.7394L46.8104 64.7098C46.602 64.7649 46.3851 64.7774 46.1721 64.7465C45.959 64.7156 45.754 64.642 45.5686 64.5298C45.3833 64.4176 45.2213 64.269 45.092 64.0926C44.9626 63.9161 44.8683 63.7153 44.8146 63.5014C44.7609 63.2876 44.7487 63.065 44.7788 62.8464C44.8089 62.6278 44.8807 62.4173 44.99 62.2272C45.0993 62.037 45.2441 61.8708 45.416 61.738C45.588 61.6052 45.7837 61.5085 45.9921 61.4534L83.6675 51.483C83.8758 51.4278 84.0927 51.4153 84.3058 51.4462C84.5188 51.4771 84.7239 51.5507 84.9092 51.6629C85.0945 51.7751 85.2565 51.9237 85.3859 52.1002C85.5153 52.2766 85.6095 52.4775 85.6632 52.6913C85.717 52.9051 85.7291 53.1277 85.699 53.3463C85.6689 53.565 85.5972 53.7754 85.4878 53.9656C85.3785 54.1558 85.2337 54.322 85.0618 54.4547C84.8899 54.5875 84.6941 54.6842 84.4858 54.7394Z" fill="#F2F2F2"/>
<path d="M92.1014 58.5869L47.7678 70.4235C47.5589 70.4793 47.3414 70.4919 47.1278 70.4607C46.9142 70.4294 46.7086 70.3549 46.5228 70.2414C46.337 70.128 46.1747 69.9777 46.0449 69.7992C45.9152 69.6208 45.8208 69.4176 45.7669 69.2013C45.713 68.9851 45.7008 68.7599 45.731 68.5388C45.7612 68.3176 45.8331 68.1048 45.9427 67.9124C46.0523 67.7201 46.1975 67.5519 46.3699 67.4176C46.5422 67.2833 46.7385 67.1855 46.9474 67.1298L91.281 55.2931C91.7029 55.1805 92.1507 55.246 92.526 55.4752C92.9012 55.7044 93.1731 56.0785 93.2819 56.5153C93.3907 56.9521 93.3275 57.4157 93.1061 57.8042C92.8847 58.1927 92.5233 58.4743 92.1014 58.5869Z" fill="#F2F2F2"/>
<path d="M90.1996 79.2638L52.5232 88.5222C52.1025 88.6253 51.6561 88.565 51.282 88.3545C50.908 88.1441 50.6369 87.8007 50.5285 87.3999C50.42 86.9991 50.483 86.5736 50.7036 86.2171C50.9242 85.8605 51.2843 85.602 51.7049 85.4983L89.3813 76.2399C89.8021 76.1365 90.2488 76.1966 90.623 76.407C90.9973 76.6175 91.2686 76.9609 91.3771 77.3619C91.4856 77.7629 91.4225 78.1886 91.2017 78.5452C90.9809 78.9019 90.6204 79.1604 90.1996 79.2638Z" fill="#F2F2F2"/>
<path d="M98.7675 82.3944L54.4351 94.2307C54.2262 94.2867 54.0086 94.2995 53.7949 94.2684C53.5811 94.2373 53.3754 94.1629 53.1895 94.0494C53.0035 93.936 52.841 93.7857 52.7112 93.6072C52.5814 93.4286 52.4868 93.2253 52.4329 93.009C52.379 92.7926 52.3668 92.5673 52.3971 92.346C52.4273 92.1248 52.4993 91.9119 52.6091 91.7194C52.7189 91.527 52.8642 91.3589 53.0367 91.2246C53.2093 91.0904 53.4057 90.9927 53.6148 90.9371L97.9471 79.1008C98.369 78.9881 98.8168 79.0536 99.192 79.2828C99.5672 79.512 99.8391 79.8861 99.9479 80.3229C100.057 80.7597 99.9935 81.2233 99.7721 81.6118C99.5507 82.0003 99.1893 82.2818 98.7675 82.3944Z" fill="#F2F2F2"/>
<path d="M33.6921 50.769L20.2621 54.2613C20.0589 54.314 19.8432 54.2831 19.6625 54.1756C19.4818 54.0681 19.3508 53.8927 19.2982 53.6879L16.2153 41.633C16.1631 41.4281 16.1937 41.2107 16.3003 41.0284C16.407 40.8462 16.5809 40.7141 16.784 40.661L30.214 37.1686C30.4173 37.116 30.6329 37.1469 30.8136 37.2544C30.9943 37.3619 31.1253 37.5373 31.178 37.7421L34.2608 49.7969C34.313 50.0019 34.2824 50.2193 34.1758 50.4015C34.0692 50.5838 33.8952 50.7159 33.6921 50.769Z" fill="#E6E6E6"/>
<path d="M40.3591 74.5795L26.9291 78.0719C26.7259 78.1245 26.5102 78.0937 26.3295 77.9862C26.1488 77.8786 26.0178 77.7032 25.9652 77.4984L22.8823 65.4436C22.8301 65.2387 22.8607 65.0212 22.9673 64.839C23.0739 64.6568 23.2479 64.5246 23.451 64.4716L36.881 60.9792C37.0843 60.9266 37.2999 60.9574 37.4806 61.0649C37.6613 61.1724 37.7923 61.3479 37.845 61.5527L40.9278 73.6075C40.98 73.8124 40.9494 74.0299 40.8428 74.2121C40.7362 74.3943 40.5622 74.5264 40.3591 74.5795Z" fill="#E6E6E6"/>
<path d="M46.0739 98.5833L32.6439 101.882C32.4407 101.931 32.2251 101.902 32.0444 101.801C31.8637 101.699 31.7326 101.533 31.68 101.34L28.5971 89.9549C28.545 89.7614 28.5756 89.556 28.6822 89.3839C28.7888 89.2118 28.9627 89.087 29.1658 89.0369L42.5959 85.7385C42.7991 85.6889 43.0147 85.718 43.1954 85.8195C43.3761 85.9211 43.5072 86.0867 43.5598 86.2802L46.6426 97.6653C46.6948 97.8588 46.6642 98.0642 46.5576 98.2363C46.451 98.4084 46.2771 98.5332 46.0739 98.5833Z" fill="#E6E6E6"/>
<path d="M133.916 21.9053H56.5588C53.936 21.9082 51.4214 22.9501 49.5668 24.8023C47.7122 26.6545 46.669 29.1658 46.666 31.7853V122.502C46.669 125.121 47.7122 127.632 49.5668 129.485C51.4214 131.337 53.936 132.379 56.5588 132.382H133.916C136.539 132.379 139.054 131.337 140.908 129.485C142.763 127.632 143.806 125.121 143.809 122.502V31.7853C143.806 29.1658 142.763 26.6545 140.908 24.8023C139.054 22.9501 136.539 21.9082 133.916 21.9053Z" fill="#E6E6E6"/>
<path d="M133.909 24.7607H56.5669C54.6995 24.7628 52.9092 25.5046 51.5887 26.8233C50.2683 28.142 49.5255 29.9299 49.5234 31.7948V122.489C49.5255 124.354 50.2683 126.142 51.5887 127.46C52.9092 128.779 54.6995 129.521 56.5669 129.523H133.909C135.776 129.521 137.566 128.779 138.887 127.46C140.207 126.142 140.95 124.354 140.952 122.489V31.7948C140.95 29.9299 140.207 28.142 138.887 26.8233C137.566 25.5046 135.776 24.7629 133.909 24.7607Z" fill="white"/>
<path d="M141.905 142.858C151.899 142.858 160 134.97 160 125.239C160 115.508 151.899 107.62 141.905 107.62C131.911 107.62 123.81 115.508 123.81 125.239C123.81 134.97 131.911 142.858 141.905 142.858Z" fill="#11AACC"/>
<path d="M150.987 122.891H144.728V116.632C144.728 116.01 144.481 115.413 144.041 114.973C143.601 114.532 143.004 114.285 142.381 114.285C141.759 114.285 141.162 114.532 140.722 114.973C140.281 115.413 140.034 116.01 140.034 116.632V122.891H133.776C133.153 122.891 132.556 123.138 132.116 123.578C131.676 124.018 131.429 124.615 131.429 125.238C131.429 125.86 131.676 126.457 132.116 126.897C132.556 127.337 133.153 127.584 133.776 127.584H140.034V133.843C140.034 134.465 140.281 135.062 140.722 135.503C141.162 135.943 141.759 136.19 142.381 136.19C143.004 136.19 143.601 135.943 144.041 135.503C144.481 135.062 144.728 134.465 144.728 133.843V127.584H150.987C151.609 127.584 152.206 127.337 152.646 126.897C153.086 126.457 153.334 125.86 153.334 125.238C153.334 124.615 153.086 124.018 152.646 123.578C152.206 123.138 151.609 122.891 150.987 122.891Z" fill="white"/>
<path d="M122.184 74.2868H83.5347C83.3208 74.287 83.109 74.2502 82.9113 74.1785C82.7136 74.1068 82.534 74.0017 82.3826 73.869C82.2313 73.7363 82.1113 73.5787 82.0293 73.4053C81.9474 73.2319 81.9053 73.046 81.9053 72.8583C81.9053 72.6705 81.9474 72.4846 82.0293 72.3112C82.1113 72.1378 82.2313 71.9802 82.3826 71.8475C82.534 71.7149 82.7136 71.6097 82.9113 71.538C83.109 71.4663 83.3208 71.4295 83.5347 71.4297H122.184C122.616 71.4301 123.029 71.5808 123.334 71.8487C123.639 72.1165 123.81 72.4797 123.81 72.8583C123.81 73.2369 123.639 73.6 123.334 73.8679C123.029 74.1357 122.616 74.2864 122.184 74.2868Z" fill="#E6E6E6"/>
<path d="M128.851 80.0007H83.5331C83.3194 80.0009 83.1078 79.9641 82.9103 79.8924C82.7128 79.8207 82.5333 79.7155 82.3822 79.5828C82.231 79.4502 82.111 79.2926 82.0292 79.1192C81.9474 78.9458 81.9053 78.7599 81.9053 78.5721C81.9053 78.3844 81.9474 78.1985 82.0292 78.0251C82.111 77.8516 82.231 77.6941 82.3822 77.5614C82.5333 77.4287 82.7128 77.3235 82.9103 77.2518C83.1078 77.1801 83.3194 77.1433 83.5331 77.1436H128.851C129.282 77.1436 129.696 77.2941 130.001 77.562C130.305 77.8299 130.477 78.1932 130.477 78.5721C130.477 78.951 130.305 79.3144 130.001 79.5823C129.696 79.8502 129.282 80.0007 128.851 80.0007Z" fill="#E6E6E6"/>
<path d="M122.183 99.0476H83.5347C83.3208 99.0478 83.1089 99.011 82.9113 98.9393C82.7136 98.8676 82.5339 98.7624 82.3826 98.6297C82.2313 98.497 82.1112 98.3395 82.0293 98.1661C81.9474 97.9926 81.9053 97.8067 81.9053 97.619C81.9053 97.4313 81.9474 97.2454 82.0293 97.0719C82.1112 96.8985 82.2313 96.741 82.3826 96.6083C82.5339 96.4756 82.7136 96.3704 82.9113 96.2987C83.1089 96.227 83.3208 96.1902 83.5347 96.1904H122.183C122.614 96.1904 123.028 96.3409 123.333 96.6089C123.639 96.8768 123.81 97.2401 123.81 97.619C123.81 97.9979 123.639 98.3612 123.333 98.6292C123.028 98.8971 122.614 99.0476 122.183 99.0476Z" fill="#E6E6E6"/>
<path d="M128.849 104.762H83.533C83.3193 104.763 83.1077 104.726 82.9103 104.654C82.7128 104.582 82.5333 104.477 82.3821 104.345C82.231 104.212 82.111 104.054 82.0292 103.881C81.9474 103.707 81.9053 103.522 81.9053 103.334C81.9053 103.146 81.9474 102.96 82.0292 102.787C82.111 102.613 82.231 102.456 82.3821 102.323C82.5333 102.19 82.7128 102.085 82.9103 102.014C83.1077 101.942 83.3193 101.905 83.533 101.905H128.849C129.063 101.905 129.274 101.942 129.472 102.014C129.669 102.085 129.849 102.19 130 102.323C130.151 102.456 130.271 102.613 130.353 102.787C130.435 102.96 130.477 103.146 130.477 103.334C130.477 103.522 130.435 103.707 130.353 103.881C130.271 104.054 130.151 104.212 130 104.345C129.849 104.477 129.669 104.582 129.472 104.654C129.274 104.726 129.063 104.763 128.849 104.762Z" fill="#E6E6E6"/>
<path d="M74.4577 82.857H60.7804C60.5735 82.8568 60.3751 82.7712 60.2288 82.619C60.0825 82.4669 60.0002 82.2605 60 82.0453V69.383C60.0002 69.1678 60.0825 68.9615 60.2288 68.8093C60.3751 68.6571 60.5735 68.5715 60.7804 68.5713H74.4577C74.6646 68.5715 74.863 68.6571 75.0093 68.8093C75.1556 68.9615 75.2379 69.1678 75.2381 69.383V82.0453C75.2379 82.2605 75.1556 82.4669 75.0093 82.619C74.863 82.7712 74.6646 82.8568 74.4577 82.857Z" fill="#E6E6E6"/>
<path d="M74.4577 107.618H60.7804C60.5735 107.618 60.3751 107.532 60.2288 107.38C60.0825 107.228 60.0002 107.021 60 106.806V94.1437C60.0002 93.9285 60.0825 93.7222 60.2288 93.57C60.3751 93.4179 60.5735 93.3323 60.7804 93.332H74.4577C74.6646 93.3323 74.863 93.4179 75.0093 93.57C75.1556 93.7222 75.2379 93.9285 75.2381 94.1437V106.806C75.2379 107.021 75.1556 107.228 75.0093 107.38C74.863 107.532 74.6646 107.618 74.4577 107.618Z" fill="#E6E6E6"/>
<path d="M122.198 46.6667H93.992C93.5647 46.6667 93.1549 46.5162 92.8528 46.2483C92.5506 45.9804 92.3809 45.617 92.3809 45.2381C92.3809 44.8593 92.5506 44.4959 92.8528 44.228C93.1549 43.9601 93.5647 43.8096 93.992 43.8096H122.198C122.626 43.8096 123.035 43.9601 123.338 44.228C123.64 44.4959 123.809 44.8593 123.809 45.2381C123.809 45.617 123.64 45.9804 123.338 46.2483C123.035 46.5162 122.626 46.6667 122.198 46.6667Z" fill="#CCCCCC"/>
<path d="M128.864 52.3816H93.9929C93.7812 52.3816 93.5716 52.3446 93.376 52.2728C93.1804 52.201 93.0027 52.0958 92.853 51.9631C92.7033 51.8305 92.5846 51.673 92.5036 51.4997C92.4226 51.3264 92.3809 51.1406 92.3809 50.953C92.3809 50.7654 92.4226 50.5796 92.5036 50.4063C92.5846 50.233 92.7033 50.0755 92.853 49.9428C93.0027 49.8102 93.1804 49.7049 93.376 49.6332C93.5716 49.5614 93.7812 49.5244 93.9929 49.5244H128.864C129.292 49.5244 129.702 49.6749 130.004 49.9428C130.306 50.2107 130.476 50.5741 130.476 50.953C130.476 51.3319 130.306 51.6952 130.004 51.9631C129.702 52.2311 129.292 52.3816 128.864 52.3816Z" fill="#CCCCCC"/>
<path d="M87.7702 59.0483H60.8012C60.5888 59.0481 60.3851 58.9664 60.2349 58.8212C60.0847 58.6759 60.0002 58.4789 60 58.2735V37.9184C60.0002 37.713 60.0847 37.516 60.2349 37.3708C60.3851 37.2255 60.5888 37.1438 60.8012 37.1436H87.7702C87.9827 37.1438 88.1863 37.2255 88.3365 37.3708C88.4867 37.516 88.5712 37.713 88.5715 37.9184V58.2735C88.5712 58.4789 88.4867 58.6759 88.3365 58.8212C88.1863 58.9664 87.9827 59.0481 87.7702 59.0483Z" fill="#11AACC"/>
</svg>
