<svg width="116" height="103" viewBox="0 0 116 103" fill="none" xmlns="http://www.w3.org/2000/svg">
<path d="M114.272 37.6279H114.231L90.93 47.5777L59.049 61.1911C58.9245 61.2435 58.7908 61.2708 58.6556 61.2715C58.5205 61.2722 58.3865 61.2463 58.2614 61.1952L25.3697 47.5492L1.49595 37.6442L1.45948 37.6279H1.41884C1.04215 37.6284 0.68101 37.7782 0.41465 38.0445C0.148291 38.3109 -0.00153354 38.672 -0.00195312 39.0487V100.753C-0.00153288 101.129 0.148291 101.49 0.41465 101.757C0.68101 102.023 1.04215 102.173 1.41884 102.173H114.272C114.649 102.173 115.01 102.023 115.276 101.757C115.542 101.49 115.692 101.129 115.693 100.753V39.0487C115.692 38.672 115.542 38.3109 115.276 38.0445C115.01 37.7782 114.649 37.6284 114.272 37.6279Z" fill="white"/>
<path d="M59.4368 62.1129L59.4418 62.1108L91.3227 48.4973L114.393 38.6462C114.459 38.6662 114.519 38.7021 114.569 38.7516C114.648 38.8307 114.693 38.938 114.693 39.0499V100.751C114.693 100.863 114.648 100.971 114.569 101.05C114.49 101.129 114.383 101.173 114.271 101.173H1.41998C1.3081 101.173 1.20086 101.129 1.12176 101.05C1.04276 100.971 0.998272 100.864 0.998047 100.752V39.0495C0.998272 38.9377 1.04275 38.8307 1.12176 38.7516C1.17185 38.7016 1.23323 38.6653 1.29993 38.6455L24.9865 48.4729L24.9865 48.4729L57.8782 62.1188L57.8832 62.1209C58.13 62.2217 58.3942 62.2729 58.6608 62.2715C58.9274 62.2701 59.1911 62.2162 59.4368 62.1129Z" stroke="black" stroke-opacity="0.1" stroke-width="2"/>
<path d="M4.41992 39.414L57.6012 0L111.186 42.2184L60.3413 72.3598L32.737 66.0678L4.41992 39.414Z" fill="#E6E6E6" fill-opacity="0.5"/>
<path d="M33.2244 65.1533L5.97605 39.5054L57.5827 1.25846L109.422 42.1017L60.1745 71.2962L33.2244 65.1533Z" stroke="black" stroke-opacity="0.1" stroke-width="2"/>
<path d="M35.0683 90.9832H8.79539C8.63406 90.9837 8.47422 90.9523 8.32502 90.891C8.17581 90.8296 8.04017 90.7394 7.92584 90.6256C7.81152 90.5117 7.72075 90.3765 7.65874 90.2276C7.59673 90.0786 7.56469 89.9189 7.56445 89.7576C7.56422 89.5962 7.59579 89.4365 7.65736 89.2873C7.71893 89.1382 7.80929 89.0027 7.92328 88.8885C8.03727 88.7743 8.17265 88.6838 8.32167 88.622C8.47069 88.5602 8.63044 88.5283 8.79177 88.5283H35.0683C35.2296 88.5279 35.3895 88.5592 35.5387 88.6206C35.6879 88.6819 35.8235 88.7721 35.9379 88.886C36.0522 88.9998 36.143 89.135 36.205 89.284C36.267 89.4329 36.299 89.5926 36.2992 89.754C36.2995 89.9153 36.2679 90.0751 36.2063 90.2242C36.1448 90.3733 36.0544 90.5089 35.9404 90.623C35.8264 90.7372 35.6911 90.8278 35.542 90.8896C35.393 90.9514 35.2333 90.9832 35.0719 90.9832H35.0683Z" fill="#11AACC"/>
<path d="M18.2215 85.7039H8.79539C8.63406 85.7044 8.47422 85.673 8.32502 85.6117C8.17581 85.5503 8.04017 85.4601 7.92584 85.3463C7.81152 85.2325 7.72076 85.0972 7.65875 84.9483C7.59674 84.7993 7.56469 84.6396 7.56445 84.4783C7.56422 84.317 7.59579 84.1572 7.65736 84.008C7.71893 83.8589 7.80929 83.7234 7.92328 83.6092C8.03727 83.4951 8.17265 83.4045 8.32168 83.3427C8.4707 83.2809 8.63044 83.249 8.79177 83.249H18.2215C18.5468 83.249 18.8588 83.378 19.0889 83.6078C19.3191 83.8376 19.4487 84.1494 19.4491 84.4747C19.4496 84.7999 19.321 85.1121 19.0915 85.3425C18.862 85.573 18.5504 85.703 18.2252 85.7039H18.2215Z" fill="#11AACC"/>
<path d="M58.338 61.3746C58.1383 61.3748 57.9405 61.3361 57.7556 61.2606L24.957 47.6514V5.05265C24.9575 4.67597 25.1073 4.31483 25.3737 4.04847C25.64 3.78212 26.0011 3.63228 26.3778 3.63184H89.2995C89.6762 3.63228 90.0373 3.78212 90.3037 4.04847C90.5701 4.31483 90.7199 4.67596 90.7203 5.05265V47.6812L90.6587 47.7075L58.938 61.2539C58.748 61.3337 58.544 61.3748 58.338 61.3746Z" fill="#11AACC"/>
<path d="M53.2293 19.5484H30.9022C30.472 19.5476 30.0598 19.3762 29.7559 19.0718C29.4519 18.7673 29.2812 18.3547 29.2812 17.9246C29.2812 17.4944 29.4519 17.0818 29.7559 16.7774C30.0598 16.4729 30.472 16.3015 30.9022 16.3008H53.2293C53.6594 16.3015 54.0717 16.4729 54.3756 16.7774C54.6795 17.0818 54.8502 17.4944 54.8502 17.9246C54.8502 18.3547 54.6795 18.7673 54.3756 19.0718C54.0717 19.3762 53.6594 19.5476 53.2293 19.5484Z" fill="white"/>
<path d="M41.6626 12.645H30.905C30.4744 12.645 30.0614 12.474 29.7568 12.1694C29.4523 11.8649 29.2812 11.4519 29.2812 11.0212C29.2812 10.5906 29.4523 10.1776 29.7568 9.87306C30.0614 9.56854 30.4744 9.39746 30.905 9.39746H41.6626C42.0933 9.39746 42.5063 9.56854 42.8108 9.87306C43.1153 10.1776 43.2864 10.5906 43.2864 11.0212C43.2864 11.4519 43.1153 11.8649 42.8108 12.1694C42.5063 12.474 42.0933 12.645 41.6626 12.645Z" fill="white"/>
<path d="M74.5377 35.7896H40.4382C40.0076 35.7896 39.5946 35.6185 39.29 35.314C38.9855 35.0094 38.8145 34.5964 38.8145 34.1658C38.8145 33.7351 38.9855 33.3221 39.29 33.0176C39.5946 32.7131 40.0076 32.542 40.4382 32.542H74.5377C74.9684 32.542 75.3814 32.7131 75.6859 33.0176C75.9905 33.3221 76.1615 33.7351 76.1615 34.1658C76.1615 34.5964 75.9905 35.0094 75.6859 35.314C75.3814 35.6185 74.9684 35.7896 74.5377 35.7896Z" fill="white"/>
<path d="M74.5406 43.2945H40.4411C40.2276 43.2948 40.0161 43.2531 39.8188 43.1717C39.6215 43.0902 39.4421 42.9707 39.2911 42.8199C39.14 42.669 39.0201 42.4899 38.9383 42.2927C38.8566 42.0955 38.8145 41.8841 38.8145 41.6707C38.8145 41.4572 38.8566 41.2458 38.9383 41.0486C39.0201 40.8514 39.14 40.6723 39.2911 40.5215C39.4421 40.3707 39.6215 40.2511 39.8188 40.1697C40.0161 40.0882 40.2276 40.0465 40.4411 40.0469H74.5406C74.7541 40.0465 74.9655 40.0882 75.1629 40.1697C75.3602 40.2511 75.5395 40.3707 75.6906 40.5215C75.8417 40.6723 75.9616 40.8514 76.0433 41.0486C76.1251 41.2458 76.1672 41.4572 76.1672 41.6707C76.1672 41.8841 76.1251 42.0955 76.0433 42.2927C75.9616 42.4899 75.8417 42.669 75.6906 42.8199C75.5395 42.9707 75.3602 43.0902 75.1629 43.1717C74.9655 43.2531 74.7541 43.2948 74.5406 43.2945Z" fill="white"/>
</svg>
