<svg width="20" height="20" viewBox="0 0 20 20" fill="none" xmlns="http://www.w3.org/2000/svg">
<mask id="path-1-inside-1_693_3703" fill="white">
<path d="M1.66616 7.22269C1.91173 7.22269 2.14724 7.12514 2.32089 6.95149C2.49453 6.77785 2.59209 6.54234 2.59209 6.29677V3.51899C2.59209 3.27342 2.68964 3.03791 2.86328 2.86426C3.03693 2.69062 3.27244 2.59306 3.51801 2.59306H6.29579C6.54136 2.59306 6.77687 2.49551 6.95052 2.32187C7.12416 2.14822 7.22172 1.91271 7.22172 1.66714C7.22172 1.42157 7.12416 1.18605 6.95052 1.01241C6.77687 0.838764 6.54136 0.741211 6.29579 0.741211H3.51801C2.7813 0.741211 2.07476 1.03387 1.55383 1.5548C1.03289 2.07574 0.740234 2.78228 0.740234 3.51899V6.29677C0.740234 6.54234 0.837787 6.77785 1.01143 6.95149C1.18508 7.12514 1.42059 7.22269 1.66616 7.22269ZM6.29579 17.4079H3.51801C3.27244 17.4079 3.03693 17.3103 2.86328 17.1367C2.68964 16.963 2.59209 16.7275 2.59209 16.482V13.7042C2.59209 13.4586 2.49453 13.2231 2.32089 13.0494C2.14724 12.8758 1.91173 12.7782 1.66616 12.7782C1.42059 12.7782 1.18508 12.8758 1.01143 13.0494C0.837787 13.2231 0.740234 13.4586 0.740234 13.7042V16.482C0.740234 17.2187 1.03289 17.9252 1.55383 18.4461C2.07476 18.9671 2.7813 19.2597 3.51801 19.2597H6.29579C6.54136 19.2597 6.77687 19.1622 6.95052 18.9885C7.12416 18.8149 7.22172 18.5794 7.22172 18.3338C7.22172 18.0882 7.12416 17.8527 6.95052 17.6791C6.77687 17.5054 6.54136 17.4079 6.29579 17.4079ZM9.99949 6.29677C9.26697 6.29677 8.5509 6.51399 7.94183 6.92095C7.33276 7.32792 6.85804 7.90636 6.57772 8.58312C6.29739 9.25989 6.22405 10.0046 6.36696 10.723C6.50986 11.4415 6.86261 12.1014 7.38058 12.6194C7.89855 13.1374 8.55849 13.4901 9.27694 13.633C9.99539 13.7759 10.7401 13.7026 11.4168 13.4222C12.0936 13.1419 12.672 12.6672 13.079 12.0581C13.486 11.4491 13.7032 10.733 13.7032 10.0005C13.7032 9.01819 13.313 8.07614 12.6184 7.38156C11.9238 6.68698 10.9818 6.29677 9.99949 6.29677ZM9.99949 11.8523C9.63323 11.8523 9.2752 11.7437 8.97066 11.5402C8.66612 11.3367 8.42877 11.0475 8.28861 10.7091C8.14844 10.3708 8.11177 9.99842 8.18322 9.63919C8.25468 9.27997 8.43105 8.95 8.69004 8.69101C8.94902 8.43203 9.27899 8.25565 9.63822 8.1842C9.99744 8.11275 10.3698 8.14942 10.7082 8.28958C11.0465 8.42974 11.3358 8.6671 11.5393 8.97164C11.7427 9.27617 11.8513 9.63421 11.8513 10.0005C11.8513 10.4916 11.6562 10.9626 11.309 11.3099C10.9617 11.6572 10.4906 11.8523 9.99949 11.8523ZM16.481 0.741211H13.7032C13.4576 0.741211 13.2221 0.838764 13.0485 1.01241C12.8748 1.18605 12.7773 1.42157 12.7773 1.66714C12.7773 1.91271 12.8748 2.14822 13.0485 2.32187C13.2221 2.49551 13.4576 2.59306 13.7032 2.59306H16.481C16.7265 2.59306 16.9621 2.69062 17.1357 2.86426C17.3093 3.03791 17.4069 3.27342 17.4069 3.51899V6.29677C17.4069 6.54234 17.5045 6.77785 17.6781 6.95149C17.8517 7.12514 18.0873 7.22269 18.3328 7.22269C18.5784 7.22269 18.8139 7.12514 18.9876 6.95149C19.1612 6.77785 19.2588 6.54234 19.2588 6.29677V3.51899C19.2588 2.78228 18.9661 2.07574 18.4452 1.5548C17.9242 1.03387 17.2177 0.741211 16.481 0.741211ZM18.3328 12.7782C18.0873 12.7782 17.8517 12.8758 17.6781 13.0494C17.5045 13.2231 17.4069 13.4586 17.4069 13.7042V16.482C17.4069 16.7275 17.3093 16.963 17.1357 17.1367C16.9621 17.3103 16.7265 17.4079 16.481 17.4079H13.7032C13.4576 17.4079 13.2221 17.5054 13.0485 17.6791C12.8748 17.8527 12.7773 18.0882 12.7773 18.3338C12.7773 18.5794 12.8748 18.8149 13.0485 18.9885C13.2221 19.1622 13.4576 19.2597 13.7032 19.2597H16.481C17.2177 19.2597 17.9242 18.9671 18.4452 18.4461C18.9661 17.9252 19.2588 17.2187 19.2588 16.482V13.7042C19.2588 13.4586 19.1612 13.2231 18.9876 13.0494C18.8139 12.8758 18.5784 12.7782 18.3328 12.7782Z"/>
</mask>
<path d="M2.59209 6.29677H4.59209H2.59209ZM3.51801 2.59306V4.59306V2.59306ZM6.29579 2.59306V4.59306V2.59306ZM6.29579 0.741211V-1.25879V0.741211ZM3.51801 0.741211V-1.25879V0.741211ZM0.740234 3.51899H-1.25977H0.740234ZM0.740234 6.29677H-1.25977H0.740234ZM2.59209 13.7042H4.59209H2.59209ZM0.740234 13.7042H-1.25977H0.740234ZM0.740234 16.482H-1.25977H0.740234ZM3.51801 19.2597V21.2597V19.2597ZM9.99949 6.29677V4.29677V6.29677ZM13.7032 10.0005H15.7032H13.7032ZM13.7032 0.741211V-1.25879V0.741211ZM13.7032 2.59306V4.59306V2.59306ZM19.2588 3.51899H21.2588H19.2588ZM16.481 19.2597V21.2597V19.2597ZM19.2588 16.482H21.2588H19.2588ZM1.66616 9.22269C2.44217 9.22269 3.18639 8.91442 3.7351 8.36571L0.906675 5.53728C1.1081 5.33585 1.3813 5.22269 1.66616 5.22269V9.22269ZM3.7351 8.36571C4.28382 7.81699 4.59209 7.07277 4.59209 6.29677H0.592086C0.592086 6.0119 0.705247 5.73871 0.906675 5.53728L3.7351 8.36571ZM4.59209 6.29677V3.51899H0.592086V6.29677H4.59209ZM4.59209 3.51899C4.59209 3.80385 4.47892 4.07705 4.2775 4.27847L1.44907 1.45005C0.900354 1.99876 0.592086 2.74298 0.592086 3.51899H4.59209ZM4.2775 4.27847C4.07607 4.4799 3.80288 4.59306 3.51801 4.59306V0.593063C2.74201 0.593063 1.99779 0.90133 1.44907 1.45005L4.2775 4.27847ZM3.51801 4.59306H6.29579V0.593063H3.51801V4.59306ZM6.29579 4.59306C7.07179 4.59306 7.81601 4.2848 8.36473 3.73608L5.5363 0.907652C5.73773 0.706224 6.01093 0.593063 6.29579 0.593063V4.59306ZM8.36473 3.73608C8.91345 3.18736 9.22172 2.44314 9.22172 1.66714H5.22172C5.22172 1.38227 5.33488 1.10908 5.5363 0.907652L8.36473 3.73608ZM9.22172 1.66714C9.22172 0.891132 8.91345 0.146912 8.36473 -0.401805L5.5363 2.42662C5.33488 2.22519 5.22172 1.952 5.22172 1.66714H9.22172ZM8.36473 -0.401805C7.81601 -0.950523 7.07179 -1.25879 6.29579 -1.25879V2.74121C6.01093 2.74121 5.73773 2.62805 5.5363 2.42662L8.36473 -0.401805ZM6.29579 -1.25879H3.51801V2.74121H6.29579V-1.25879ZM3.51801 -1.25879C2.25087 -1.25879 1.03562 -0.755417 0.139613 0.14059L2.96804 2.96902C3.1139 2.82316 3.31173 2.74121 3.51801 2.74121V-1.25879ZM0.139613 0.14059C-0.756394 1.0366 -1.25977 2.25184 -1.25977 3.51899H2.74023C2.74023 3.31271 2.82218 3.11488 2.96804 2.96902L0.139613 0.14059ZM-1.25977 3.51899V6.29677H2.74023V3.51899H-1.25977ZM-1.25977 6.29677C-1.25977 7.07277 -0.951499 7.81699 -0.402782 8.36571L2.42565 5.53728C2.62707 5.73871 2.74023 6.0119 2.74023 6.29677H-1.25977ZM-0.402782 8.36571C0.145935 8.91442 0.890156 9.22269 1.66616 9.22269V5.22269C1.95102 5.22269 2.22422 5.33585 2.42565 5.53728L-0.402782 8.36571ZM6.29579 15.4079H3.51801V19.4079H6.29579V15.4079ZM3.51801 15.4079C3.80287 15.4079 4.07607 15.521 4.2775 15.7225L1.44907 18.5509C1.99779 19.0996 2.74201 19.4079 3.51801 19.4079V15.4079ZM4.2775 15.7225C4.47893 15.9239 4.59209 16.1971 4.59209 16.482H0.592086C0.592086 17.258 0.900352 18.0022 1.44907 18.5509L4.2775 15.7225ZM4.59209 16.482V13.7042H0.592086V16.482H4.59209ZM4.59209 13.7042C4.59209 12.9282 4.28382 12.1839 3.7351 11.6352L0.906675 14.4637C0.705247 14.2622 0.592086 13.989 0.592086 13.7042H4.59209ZM3.7351 11.6352C3.18639 11.0865 2.44217 10.7782 1.66616 10.7782V14.7782C1.3813 14.7782 1.1081 14.6651 0.906675 14.4637L3.7351 11.6352ZM1.66616 10.7782C0.890156 10.7782 0.145935 11.0865 -0.402782 11.6352L2.42565 14.4637C2.22422 14.6651 1.95102 14.7782 1.66616 14.7782V10.7782ZM-0.402782 11.6352C-0.951499 12.1839 -1.25977 12.9282 -1.25977 13.7042H2.74023C2.74023 13.989 2.62707 14.2622 2.42565 14.4637L-0.402782 11.6352ZM-1.25977 13.7042V16.482H2.74023V13.7042H-1.25977ZM-1.25977 16.482C-1.25977 17.7491 -0.756394 18.9643 0.139613 19.8604L2.96804 17.0319C2.82218 16.8861 2.74023 16.6882 2.74023 16.482H-1.25977ZM0.139613 19.8604C1.03562 20.7564 2.25087 21.2597 3.51801 21.2597V17.2597C3.31173 17.2597 3.1139 17.1778 2.96804 17.0319L0.139613 19.8604ZM3.51801 21.2597H6.29579V17.2597H3.51801V21.2597ZM6.29579 21.2597C7.07179 21.2597 7.81601 20.9515 8.36473 20.4027L5.5363 17.5743C5.73773 17.3729 6.01093 17.2597 6.29579 17.2597V21.2597ZM8.36473 20.4027C8.91345 19.854 9.22172 19.1098 9.22172 18.3338H5.22172C5.22172 18.0489 5.33488 17.7757 5.5363 17.5743L8.36473 20.4027ZM9.22172 18.3338C9.22172 17.5578 8.91345 16.8136 8.36473 16.2649L5.5363 19.0933C5.33488 18.8919 5.22172 18.6187 5.22172 18.3338H9.22172ZM8.36473 16.2649C7.81601 15.7161 7.07179 15.4079 6.29579 15.4079V19.4079C6.01093 19.4079 5.73773 19.2947 5.5363 19.0933L8.36473 16.2649ZM9.99949 4.29677C8.87141 4.29677 7.76865 4.63128 6.83069 5.25801L9.05297 8.58389C9.33314 8.39669 9.66253 8.29677 9.99949 8.29677V4.29677ZM6.83069 5.25801C5.89272 5.88474 5.16166 6.77554 4.72996 7.81776L8.42548 9.34849C8.55442 9.03718 8.77279 8.7711 9.05297 8.58389L6.83069 5.25801ZM4.72996 7.81776C4.29826 8.85997 4.18531 10.0068 4.40538 11.1132L8.32853 10.3328C8.26279 10.0024 8.29653 9.6598 8.42548 9.34849L4.72996 7.81776ZM4.40538 11.1132C4.62546 12.2196 5.16869 13.2359 5.96637 14.0336L8.79479 11.2052C8.55653 10.9669 8.39426 10.6633 8.32853 10.3328L4.40538 11.1132ZM5.96637 14.0336C6.76404 14.8313 7.78035 15.3745 8.88676 15.5946L9.66712 11.6714C9.33663 11.6057 9.03306 11.4434 8.79479 11.2052L5.96637 14.0336ZM8.88676 15.5946C9.99317 15.8147 11.14 15.7017 12.1822 15.27L10.6515 11.5745C10.3402 11.7034 9.9976 11.7372 9.66712 11.6714L8.88676 15.5946ZM12.1822 15.27C13.2244 14.8383 14.1152 14.1072 14.7419 13.1693L11.4161 10.947C11.2289 11.2272 10.9628 11.4455 10.6515 11.5745L12.1822 15.27ZM14.7419 13.1693C15.3687 12.2313 15.7032 11.1286 15.7032 10.0005H11.7032C11.7032 10.3374 11.6033 10.6668 11.4161 10.947L14.7419 13.1693ZM15.7032 10.0005C15.7032 8.48775 15.1023 7.03699 14.0326 5.96734L11.2042 8.79577C11.5237 9.11528 11.7032 9.54862 11.7032 10.0005H15.7032ZM14.0326 5.96734C12.963 4.89769 11.5122 4.29677 9.99949 4.29677V8.29677C10.4513 8.29677 10.8847 8.47626 11.2042 8.79577L14.0326 5.96734ZM9.99949 9.85232C10.0288 9.85232 10.0574 9.86101 10.0818 9.87729L7.85952 13.2032C8.49295 13.6264 9.23767 13.8523 9.99949 13.8523V9.85232ZM10.0818 9.87729C10.1062 9.89357 10.1252 9.91671 10.1364 9.94378L6.44085 11.4745C6.73238 12.1783 7.22609 12.7799 7.85952 13.2032L10.0818 9.87729ZM10.1364 9.94378C10.1476 9.97085 10.1505 10.0006 10.1448 10.0294L6.22165 9.24901C6.07303 9.9962 6.14931 10.7707 6.44085 11.4745L10.1364 9.94378ZM10.1448 10.0294C10.1391 10.0581 10.125 10.0845 10.1042 10.1052L7.27582 7.2768C6.73713 7.81549 6.37028 8.50182 6.22165 9.24901L10.1448 10.0294ZM10.1042 10.1052C10.0835 10.1259 10.0571 10.1401 10.0284 10.1458L9.24803 6.22263C8.50085 6.37126 7.81451 6.73811 7.27582 7.2768L10.1042 10.1052ZM10.0284 10.1458C9.99966 10.1515 9.96987 10.1486 9.9428 10.1373L11.4735 6.44182C10.7697 6.15029 9.99522 6.07401 9.24803 6.22263L10.0284 10.1458ZM9.9428 10.1373C9.91573 10.1261 9.89259 10.1071 9.87631 10.0828L13.2022 7.8605C12.7789 7.22706 12.1774 6.73336 11.4735 6.44182L9.9428 10.1373ZM9.87631 10.0828C9.86003 10.0584 9.85135 10.0298 9.85135 10.0005H13.8513C13.8513 9.23864 13.6254 8.49393 13.2022 7.8605L9.87631 10.0828ZM9.85135 10.0005C9.85135 9.96118 9.86695 9.9235 9.89474 9.89571L12.7232 12.7241C13.4455 12.0018 13.8513 11.022 13.8513 10.0005H9.85135ZM9.89474 9.89571C9.92252 9.86793 9.9602 9.85232 9.99949 9.85232V13.8523C11.0211 13.8523 12.0008 13.4465 12.7232 12.7241L9.89474 9.89571ZM16.481 -1.25879H13.7032V2.74121H16.481V-1.25879ZM13.7032 -1.25879C12.9272 -1.25879 12.183 -0.950523 11.6343 -0.401805L14.4627 2.42662C14.2613 2.62805 13.9881 2.74121 13.7032 2.74121V-1.25879ZM11.6343 -0.401805C11.0855 0.146912 10.7773 0.891132 10.7773 1.66714H14.7773C14.7773 1.952 14.6641 2.22519 14.4627 2.42662L11.6343 -0.401805ZM10.7773 1.66714C10.7773 2.44314 11.0855 3.18736 11.6343 3.73608L14.4627 0.907652C14.6641 1.10908 14.7773 1.38227 14.7773 1.66714H10.7773ZM11.6343 3.73608C12.183 4.2848 12.9272 4.59306 13.7032 4.59306V0.593063C13.9881 0.593063 14.2613 0.706224 14.4627 0.907652L11.6343 3.73608ZM13.7032 4.59306H16.481V0.593063H13.7032V4.59306ZM16.481 4.59306C16.1961 4.59306 15.9229 4.4799 15.7215 4.27847L18.5499 1.45005C18.0012 0.901329 17.257 0.593063 16.481 0.593063V4.59306ZM15.7215 4.27847C15.5201 4.07704 15.4069 3.80385 15.4069 3.51899H19.4069C19.4069 2.74299 19.0986 1.99877 18.5499 1.45005L15.7215 4.27847ZM15.4069 3.51899V6.29677H19.4069V3.51899H15.4069ZM15.4069 6.29677C15.4069 7.07277 15.7152 7.81699 16.2639 8.36571L19.0923 5.53728C19.2937 5.73871 19.4069 6.01191 19.4069 6.29677H15.4069ZM16.2639 8.36571C16.8126 8.91443 17.5568 9.22269 18.3328 9.22269V5.22269C18.6177 5.22269 18.8909 5.33585 19.0923 5.53728L16.2639 8.36571ZM18.3328 9.22269C19.1088 9.22269 19.8531 8.91443 20.4018 8.36571L17.5733 5.53728C17.7748 5.33585 18.048 5.22269 18.3328 5.22269V9.22269ZM20.4018 8.36571C20.9505 7.81699 21.2588 7.07277 21.2588 6.29677H17.2588C17.2588 6.01191 17.3719 5.73871 17.5733 5.53728L20.4018 8.36571ZM21.2588 6.29677V3.51899H17.2588V6.29677H21.2588ZM21.2588 3.51899C21.2588 2.25184 20.7554 1.0366 19.8594 0.14059L17.0309 2.96902C17.1768 3.11488 17.2588 3.31271 17.2588 3.51899H21.2588ZM19.8594 0.14059C18.9634 -0.755417 17.7481 -1.25879 16.481 -1.25879V2.74121C16.6873 2.74121 16.8851 2.82316 17.0309 2.96902L19.8594 0.14059ZM18.3328 10.7782C17.5568 10.7782 16.8126 11.0865 16.2639 11.6352L19.0923 14.4637C18.8909 14.6651 18.6177 14.7782 18.3328 14.7782V10.7782ZM16.2639 11.6352C15.7152 12.184 15.4069 12.9282 15.4069 13.7042H19.4069C19.4069 13.989 19.2937 14.2622 19.0923 14.4637L16.2639 11.6352ZM15.4069 13.7042V16.482H19.4069V13.7042H15.4069ZM15.4069 16.482C15.4069 16.1971 15.5201 15.9239 15.7215 15.7225L18.5499 18.5509C19.0986 18.0022 19.4069 17.2579 19.4069 16.482H15.4069ZM15.7215 15.7225C15.9229 15.521 16.1961 15.4079 16.481 15.4079V19.4079C17.257 19.4079 18.0012 19.0996 18.5499 18.5509L15.7215 15.7225ZM16.481 15.4079H13.7032V19.4079H16.481V15.4079ZM13.7032 15.4079C12.9272 15.4079 12.183 15.7161 11.6343 16.2649L14.4627 19.0933C14.2613 19.2947 13.9881 19.4079 13.7032 19.4079V15.4079ZM11.6343 16.2649C11.0855 16.8136 10.7773 17.5578 10.7773 18.3338H14.7773C14.7773 18.6187 14.6641 18.8919 14.4627 19.0933L11.6343 16.2649ZM10.7773 18.3338C10.7773 19.1098 11.0855 19.854 11.6343 20.4027L14.4627 17.5743C14.6641 17.7757 14.7773 18.0489 14.7773 18.3338H10.7773ZM11.6343 20.4027C12.183 20.9515 12.9272 21.2597 13.7032 21.2597V17.2597C13.9881 17.2597 14.2613 17.3729 14.4627 17.5743L11.6343 20.4027ZM13.7032 21.2597H16.481V17.2597H13.7032V21.2597ZM16.481 21.2597C17.7481 21.2597 18.9634 20.7564 19.8594 19.8604L17.0309 17.0319C16.8851 17.1778 16.6873 17.2597 16.481 17.2597V21.2597ZM19.8594 19.8604C20.7554 18.9643 21.2588 17.7491 21.2588 16.482H17.2588C17.2588 16.6882 17.1768 16.8861 17.0309 17.0319L19.8594 19.8604ZM21.2588 16.482V13.7042H17.2588V16.482H21.2588ZM21.2588 13.7042C21.2588 12.9282 20.9505 12.184 20.4018 11.6352L17.5733 14.4637C17.3719 14.2622 17.2588 13.989 17.2588 13.7042H21.2588ZM20.4018 11.6352C19.8531 11.0865 19.1088 10.7782 18.3328 10.7782V14.7782C18.048 14.7782 17.7748 14.6651 17.5733 14.4637L20.4018 11.6352Z" fill="#535353" mask="url(#path-1-inside-1_693_3703)"/>
</svg>
