<svg width="17" height="18" viewBox="0 0 17 18" fill="none" xmlns="http://www.w3.org/2000/svg">
<path d="M7.84247 12.4479L11.2637 9.02671M11.2637 9.02671L7.84247 5.60547M11.2637 9.02671H1" stroke="currentColor" stroke-width="1.5" stroke-linecap="round" stroke-linejoin="round"/>
<path d="M2.14063 6.7477V3.31734C2.14062 2.714 2.37967 2.13524 2.80543 1.70777C3.2312 1.28029 3.809 1.03892 4.41233 1.03651L13.4809 1.00002C13.7805 0.998818 14.0774 1.05666 14.3547 1.17025C14.6319 1.28383 14.8841 1.45093 15.0967 1.662C15.3094 1.87307 15.4784 2.12397 15.5941 2.40037C15.7097 2.67676 15.7698 2.97324 15.7708 3.27286L15.8164 14.7101C15.8176 15.0096 15.7598 15.3064 15.6463 15.5836C15.5328 15.8608 15.3658 16.1129 15.1549 16.3255C14.9439 16.5382 14.6932 16.7072 14.4169 16.8229C14.1406 16.9386 13.8443 16.9988 13.5447 17H4.42145C3.81654 17 3.2364 16.7597 2.80866 16.332C2.38093 15.9042 2.14063 15.3241 2.14063 14.7192V11.3093" stroke="currentColor" stroke-width="1.5" stroke-linecap="round" stroke-linejoin="round"/>
</svg>
