<svg width="59" height="55" viewBox="0 0 59 55" fill="none" xmlns="http://www.w3.org/2000/svg">
<path d="M44.7676 24.1382C43.9338 24.9247 43.2953 25.8739 42.8973 26.918C42.4995 27.9623 42.3523 29.0759 42.4661 30.1796L42.4265 30.1424C42.5435 31.4417 42.3565 32.7489 41.8789 33.9735C41.4012 35.1978 40.6446 36.3098 39.6614 37.2318C38.6779 38.1535 37.4917 38.8633 36.1855 39.3108C34.8795 39.7586 33.4848 39.934 32.0992 39.8242L32.139 39.8614C30.4815 39.7168 28.8165 40.0548 27.3712 40.8297C25.9262 41.6046 24.7711 42.7785 24.0638 44.1913C23.3565 45.6042 23.131 47.187 23.4183 48.7245C23.7059 50.2617 24.492 51.6785 25.6697 52.7816C26.8474 53.8847 28.3593 54.6204 29.9992 54.8883C31.6394 55.1565 33.3275 54.9436 34.8339 54.2793C36.3403 53.6147 37.5913 52.531 38.4166 51.1755C39.2418 49.8199 39.6011 48.259 39.4453 46.705L39.4871 46.7421C39.3701 45.4431 39.5569 44.1357 40.0345 42.9111C40.5122 41.6867 41.2692 40.5748 42.2524 39.6528C43.2359 38.7311 44.422 38.0213 45.7279 37.5737C47.0343 37.1259 48.4285 36.9506 49.8144 37.0604L49.7726 37.0232C51.1267 37.1373 52.4897 36.9292 53.7352 36.4181C54.9804 35.907 56.0679 35.1094 56.8969 34.0993C57.7259 33.0893 58.2698 31.8991 58.4777 30.6397C58.6854 29.3801 58.551 28.0918 58.0861 26.8939C57.6214 25.6961 56.8417 24.6277 55.8193 23.7876C54.7969 22.9475 53.5651 22.363 52.2376 22.0882C50.9098 21.8135 49.5299 21.8572 48.2253 22.2155C46.9204 22.574 45.7336 23.2352 44.7742 24.1382H44.7676Z" fill="#11AACC"/>
<path opacity="0.8" d="M28.5409 35.0001L28.4991 34.9629C29.6768 35.0741 30.8662 34.9386 31.9814 34.5661C33.0964 34.1936 34.1094 33.5936 34.9467 32.8092C35.7839 32.0248 36.425 31.0756 36.823 30.0305C37.2212 28.9853 37.3666 27.8705 37.2489 26.7662L37.2907 26.8033C37.1737 25.5041 37.3607 24.1968 37.8381 22.9723C38.3157 21.7479 39.0728 20.636 40.056 19.714C41.0395 18.7922 42.2255 18.0825 43.5315 17.6349C44.8377 17.1871 46.2321 17.012 47.618 17.1215L47.5762 17.0844C49.2339 17.2304 50.8992 16.8934 52.3451 16.1193C53.7912 15.3454 54.9471 14.172 55.6556 12.7594C56.364 11.3469 56.5904 9.76366 56.3039 8.226C56.0175 6.68834 55.232 5.27114 54.0546 4.16724C52.8773 3.06355 51.3654 2.327 49.7252 2.05845C48.085 1.7899 46.3965 2.00214 44.8896 2.66629C43.3828 3.33045 42.1314 4.41434 41.3057 5.76987C40.48 7.1254 40.1205 8.68678 40.2762 10.2407L40.2366 10.2015C40.3539 11.5008 40.1673 12.8085 39.6899 14.033C39.2125 15.2576 38.4554 16.3697 37.4722 17.2917C36.4888 18.2135 35.3025 18.9232 33.9963 19.3708C32.6899 19.8184 31.2952 19.9933 29.9094 19.8833L29.949 19.9225C28.7713 19.8114 27.5817 19.9469 26.4667 20.3194C25.3517 20.6917 24.3388 21.2919 23.5014 22.0763C22.664 22.8607 22.0232 23.8099 21.6249 24.855C21.2269 25.9001 21.0815 27.0149 21.1992 28.1193L21.1596 28.0821C21.2762 29.3811 21.089 30.6884 20.6114 31.9128C20.1335 33.1369 19.3767 34.2489 18.3934 35.1706C17.4101 36.0924 16.2242 36.8019 14.9183 37.2499C13.6124 37.6977 12.218 37.8732 10.8324 37.7639L10.872 37.8011C9.21426 37.655 7.54886 37.992 6.10293 38.7661C4.65703 39.5402 3.50099 40.7134 2.79254 42.1261C2.08406 43.5388 1.85763 45.1218 2.14415 46.6595C2.43067 48.1971 3.21619 49.6145 4.39353 50.7182C5.57088 51.8221 7.08275 52.5585 8.72294 52.827C10.3631 53.0956 12.0518 52.8833 13.5586 52.2192C15.0653 51.555 16.3169 50.4713 17.1425 49.1158C17.9682 47.7601 18.3277 46.1989 18.1719 44.6447L18.2137 44.6818C18.0966 43.3826 18.2836 42.0754 18.7613 40.8508C19.2387 39.6264 19.9958 38.5145 20.979 37.5925C21.9624 36.6708 23.1485 35.961 24.4545 35.5134C25.7607 35.0656 27.1551 34.8903 28.5409 35.0001Z" fill="#002831"/>
<path d="M13.7944 30.8583C14.6283 30.072 15.2667 29.1228 15.6641 28.0785C16.0615 27.0342 16.2081 25.9204 16.0935 24.8169L16.1353 24.8541C16.0182 23.5546 16.2051 22.2467 16.683 21.022C17.1609 19.7972 17.9183 18.6851 18.9022 17.7631C19.8861 16.8413 21.0726 16.1318 22.3792 15.6842C23.6858 15.2368 25.0809 15.0621 26.467 15.1723L26.4252 15.1351C28.0823 15.2808 29.7471 14.9435 31.1924 14.1696C32.6376 13.3956 33.7929 12.2226 34.5011 10.8105C35.2091 9.39826 35.4352 7.81584 35.1488 6.27859C34.8623 4.74155 34.0769 3.32476 32.9001 2.22128C31.7232 1.118 30.2118 0.381861 28.5723 0.113312C26.9327 -0.155443 25.2446 0.0565893 23.7384 0.720536C22.232 1.38428 20.9808 2.46755 20.1554 3.82246C19.3297 5.17738 18.9699 6.73793 19.1253 8.29147L19.0857 8.25435C19.2027 9.55357 19.0157 10.861 18.5381 12.0854C18.0604 13.3098 17.3036 14.4217 16.3202 15.3437C15.3369 16.2656 14.1508 16.9752 12.8447 17.4228C11.5386 17.8705 10.1441 18.0459 8.75836 17.9361L8.79796 17.9733C7.44395 17.8594 6.08119 18.0679 4.83598 18.5792C3.59077 19.0906 2.50338 19.8884 1.67458 20.8986C0.84578 21.9087 0.302401 23.0988 0.0947557 24.3582C-0.112867 25.6178 0.0219765 26.9061 0.486791 28.1037C0.951605 29.3014 1.73138 30.3696 2.75383 31.2095C3.77628 32.0496 5.00834 32.6339 6.33583 32.9087C7.6633 33.1832 9.04327 33.1393 10.3479 32.781C11.6524 32.4225 12.8394 31.7613 13.7988 30.8583H13.7944Z" fill="#11AACC"/>
</svg>
